<?xml version="1.0" standalone="no"?><!DOCTYPE svg PUBLIC "-//W3C//DTD SVG 1.1//EN" "http://www.w3.org/Graphics/SVG/1.1/DTD/svg11.dtd"><svg t="1628218085899" class="icon" viewBox="0 0 1024 1024" version="1.1" xmlns="http://www.w3.org/2000/svg" p-id="9161" xmlns:xlink="http://www.w3.org/1999/xlink" width="200" height="200"><defs><style type="text/css"></style></defs><path d="M1012.829091 504.031418c0-229.003636-154.530909-428.218182-376.087273-485.934545-221.556364-57.716364-454.283636 42.821818-564.130909 243.898182-111.709091 201.076364-72.610909 450.56 94.952727 606.952727 7.447273-33.512727 18.618182-63.301818 35.374546-94.952727 14.894545-27.927273 130.327273-63.301818 180.596363-96.814546 48.407273-35.374545 16.756364-67.025455 0-81.92-24.203636-29.789091-46.545455-63.301818-65.163636-96.814545-37.236364-59.578182 0-65.163636 0-65.163637 3.723636-121.018182 24.203636-165.701818 65.163636-210.385454 42.821818-44.683636 195.490909-31.650909 195.49091-31.650909v11.170909c18.618182 1.861818 37.236364 9.309091 52.130909 22.341818 44.683636 44.683636 63.301818 91.229091 65.163636 210.385454 0 0 37.236364 7.447273 0 65.163637-18.618182 33.512727-40.96 67.025455-65.163636 96.814545-16.756364 16.756364-48.407273 46.545455 0 81.92 48.407273 35.374545 163.84 68.887273 180.596363 96.814546 16.756364 33.512727 29.789091 68.887273 35.374546 106.123636 106.123636-96.814545 167.563636-234.589091 165.701818-377.949091z" fill="#EFB970" p-id="9162"></path><path d="M627.432727 677.180509c-48.407273-35.374545-16.756364-65.163636 0-81.92 24.203636-29.789091 46.545455-63.301818 65.163637-96.814545 37.236364-57.716364 0-65.163636 0-65.163637-3.723636-119.156364-22.341818-165.701818-65.163637-210.385454-14.894545-13.032727-33.512727-20.48-52.130909-22.341818v-11.17091s-152.669091-13.032727-195.490909 31.65091c-40.96 44.683636-63.301818 89.367273-65.163636 210.385454 0 0-37.236364 5.585455 0 65.163636 18.618182 35.374545 40.96 68.887273 65.163636 100.538182 16.756364 14.894545 48.407273 46.545455 0 81.92-48.407273 35.374545-165.701818 68.887273-180.596364 96.814546-14.894545 29.789091-26.065455 61.44-35.374545 94.952727 189.905455 178.734545 484.072727 182.458182 677.701818 9.309091-7.447273-35.374545-18.618182-70.749091-35.374545-104.261818-13.032727-27.927273-128.465455-63.301818-178.734546-98.676364z" fill="#FFFFFF" p-id="9163"></path></svg>