<?xml version="1.0" standalone="no"?><!DOCTYPE svg PUBLIC "-//W3C//DTD SVG 1.1//EN" "http://www.w3.org/Graphics/SVG/1.1/DTD/svg11.dtd"><svg t="1630374436031" class="icon" viewBox="0 0 1316 1024" version="1.1" xmlns="http://www.w3.org/2000/svg" p-id="10456" width="41.125" height="32" xmlns:xlink="http://www.w3.org/1999/xlink"><defs><style type="text/css"></style></defs><path d="M780.19 633.905l253.562-107.276 9.753 190.171c0 29.257-14.629 53.638-43.886 78.019s-73.143 43.886-121.905 58.514c-53.638 14.629-107.276 19.505-170.666 19.505s-117.029-4.876-170.667-19.505c-53.638-14.628-92.648-34.133-121.905-58.514S370.59 746.057 370.59 716.8l9.753-190.171 351.086 107.276c9.752 4.876 14.628 4.876 24.38 4.876s19.505 0 24.381-4.876z m477.867-370.59c4.876 0 9.753 9.752 9.753 19.504s-4.877 14.629-9.753 19.505L711.924 512h-9.753L307.2 385.219c-14.629 14.629-29.257 39.01-39.01 68.267-9.752 34.133-14.628 68.266-14.628 107.276 24.38 14.628 34.133 34.133 34.133 63.39 0 29.258-9.752 48.762-29.257 63.39l29.257 263.315c0 4.876 0 9.753-4.876 14.629-4.876 9.752-9.752 9.752-14.629 9.752h-102.4c-4.876 0-9.752 0-14.628-4.876-4.876-4.876-4.876-9.752-4.876-14.629l29.257-263.314c-19.505-14.629-29.257-39.01-29.257-63.39 0-29.258 9.752-53.639 34.133-68.267 4.876-82.895 19.505-151.162 53.638-199.924l-175.543-63.39c-4.876 0-9.752-9.753-9.752-14.629s4.876-14.629 9.752-19.505L702.171 48.762h9.753l546.133 214.552z" p-id="10457" fill="#1296db"></path><path d="M268.19 999.619h-102.4c-14.628 0-24.38-4.876-34.133-14.629-4.876-9.752-9.752-19.504-9.752-34.133l29.257-248.686c-19.505-19.504-29.257-43.885-29.257-73.142 0-34.134 9.752-58.515 34.133-78.02 4.876-68.266 19.505-126.78 39.01-170.666l-141.41-58.514c-19.505-9.753-29.257-24.381-29.257-43.886s9.752-34.133 24.38-39.01L692.42 24.381c9.752-4.876 19.505 0 24.381 0l551.01 214.552c14.628 4.877 24.38 24.381 24.38 39.01s-9.752 39.01-24.38 43.886L721.676 536.38c-9.752 4.876-19.505 4.876-24.38 0L316.951 414.476c-9.752 9.753-14.628 29.257-24.38 48.762-4.877 24.381-14.63 53.638-14.63 87.772 19.506 19.504 34.134 43.885 34.134 78.019 0 29.257-9.752 53.638-29.257 73.142l29.257 248.686c0 9.753 0 24.381-9.752 34.133-9.753 9.753-19.505 14.629-34.134 14.629z m-92.647-48.762h87.771l-34.133-268.19 9.752-9.753c14.629-9.752 19.505-24.38 19.505-43.885s-4.876-34.134-24.38-43.886l-9.753-9.753v-14.628c0-43.886 9.752-82.895 19.505-112.152 14.628-39.01 29.257-63.391 48.761-78.02l9.753-9.752L707.048 487.62l531.504-204.8L707.048 73.143 82.895 282.819l190.172 68.267-14.629 24.38c-29.257 43.886-43.886 107.277-48.762 185.296v14.628l-9.752 4.877c-14.629 9.752-24.381 24.38-24.381 48.762 0 19.504 4.876 34.133 19.505 43.885l9.752 9.753-29.257 268.19z m531.505-58.514c-63.39 0-121.905-4.876-175.543-19.505-53.638-14.628-102.4-34.133-131.657-58.514-39.01-29.257-53.638-63.39-53.638-97.524l9.752-224.305 380.343 117.029c9.752 4.876 24.38 4.876 34.133 0l287.695-121.905 9.753 224.305c0 34.133-14.629 68.266-53.638 97.524-34.134 24.38-78.02 43.885-131.658 58.514-53.638 19.505-112.152 24.38-175.542 24.38z m-307.2-336.457L390.095 716.8c0 19.505 9.753 39.01 34.134 58.514 29.257 19.505 68.266 39.01 117.028 53.638 102.4 24.381 229.181 24.381 331.581 0 48.762-14.628 87.772-29.257 117.029-53.638 24.38-19.504 34.133-39.01 34.133-58.514l-9.752-156.038-224.305 97.524c-19.505 9.752-48.762 9.752-68.267 0l-321.828-102.4z" p-id="10458" fill="#1296db"></path></svg>